<svg xmlns="http://www.w3.org/2000/svg" width="943" height="854" viewBox="0 0 943 854" fill="none"><path d="M380.813 646.751L253.914 701.097L96.8329 284.006L204.098 238.07C214.94 233.425 227.263 239.035 231.616 250.596L380.813 646.751Z" fill="#F4A640"></path><path d="M335.173 266.898L92.2074 312.842L152.785 677.119L395.751 631.174L335.173 266.898Z" fill="#ADCFD8"></path><path d="M273.803 315.794L165.305 336.31L165.737 338.907L274.234 318.39L273.803 315.794Z" fill="#55769F"></path><path d="M295.504 304.894L141.418 334.031L141.85 336.628L295.935 307.49L295.504 304.894Z" fill="#55769F"></path><path d="M317.562 335.653L130.622 371.003L131.054 373.599L317.994 338.249L317.562 335.653Z" fill="#55769F"></path><path d="M319.637 348.143L132.697 383.493L133.129 386.089L320.068 350.739L319.637 348.143Z" fill="#55769F"></path><path d="M323.791 373.131L136.852 408.481L137.283 411.077L324.223 375.727L323.791 373.131Z" fill="#55769F"></path><path d="M325.871 385.62L138.931 420.97L139.363 423.566L326.302 388.216L325.871 385.62Z" fill="#55769F"></path><path d="M327.95 398.114L141.01 433.463L141.442 436.06L328.382 400.71L327.95 398.114Z" fill="#55769F"></path><path d="M337.085 453.063L150.145 488.413L150.577 491.01L337.516 455.66L337.085 453.063Z" fill="#55769F"></path><path d="M339.237 466.019L152.298 501.369L152.729 503.966L339.669 468.616L339.237 466.019Z" fill="#55769F"></path><path d="M341.393 478.971L154.454 514.321L154.885 516.917L341.825 481.567L341.393 478.971Z" fill="#55769F"></path><path d="M343.544 491.924L156.605 527.274L157.036 529.87L343.976 494.52L343.544 491.924Z" fill="#55769F"></path><path d="M345.699 504.877L158.76 540.226L159.192 542.823L346.131 507.473L345.699 504.877Z" fill="#55769F"></path><path d="M347.857 517.836L160.917 553.186L161.349 555.782L348.289 520.432L347.857 517.836Z" fill="#55769F"></path><path d="M350.011 530.785L163.072 566.134L163.503 568.731L350.443 533.381L350.011 530.785Z" fill="#55769F"></path><path d="M300.182 257.853L61.5352 324.822L149.835 682.625L388.482 615.656L300.182 257.853Z" fill="#DAEEF7"></path><path d="M242.756 311.936L136.187 341.841L136.816 344.391L243.386 314.486L242.756 311.936Z" fill="#55769F"></path><path d="M263.55 299.183L112.203 341.654L112.833 344.204L264.18 301.733L263.55 299.183Z" fill="#55769F"></path><path d="M287.893 327.916L104.276 379.442L104.905 381.992L288.522 330.466L287.893 327.916Z" fill="#55769F"></path><path d="M290.922 340.184L107.305 391.711L107.934 394.261L291.551 342.735L290.922 340.184Z" fill="#55769F"></path><path d="M296.981 364.727L113.363 416.253L113.993 418.804L297.61 367.277L296.981 364.727Z" fill="#55769F"></path><path d="M300.008 376.998L116.391 428.524L117.021 431.074L300.638 379.548L300.008 376.998Z" fill="#55769F"></path><path d="M303.037 389.267L119.42 440.793L120.05 443.343L303.667 391.817L303.037 389.267Z" fill="#55769F"></path><path d="M316.355 443.242L132.737 494.768L133.367 497.319L316.984 445.792L316.355 443.242Z" fill="#55769F"></path><path d="M319.497 455.964L135.88 507.491L136.51 510.041L320.127 458.515L319.497 455.964Z" fill="#55769F"></path><path d="M322.634 468.686L139.017 520.213L139.646 522.763L323.263 471.236L322.634 468.686Z" fill="#55769F"></path><path d="M325.775 481.411L142.158 532.938L142.787 535.488L326.404 483.962L325.775 481.411Z" fill="#55769F"></path><path d="M328.916 494.137L145.299 545.663L145.928 548.213L329.545 496.687L328.916 494.137Z" fill="#55769F"></path><path d="M332.056 506.863L148.439 558.389L149.068 560.94L332.685 509.413L332.056 506.863Z" fill="#55769F"></path><path d="M335.198 519.582L151.58 571.109L152.21 573.659L335.827 522.132L335.198 519.582Z" fill="#55769F"></path><path d="M332.665 667.369L77.1905 776.779L-71.8159 381.138L142.864 239.92C154.93 231.982 170.788 237.553 176.074 251.579L332.665 667.369Z" fill="#FEB546"></path><path d="M-5.25431 712.756L-41.701 712.052C-54.3519 687.598 -63.6378 666.334 -63.6378 666.334C-22.4777 656.215 12.2636 660.369 41.2044 672.236L57.1539 713.548L60.5687 681.735C132.296 723.007 161.851 810.387 161.851 810.387C161.851 810.387 35.0843 795.99 8.21402 782.663C-2.16315 777.518 -15.2373 759.001 -27.3779 738.21C-17.6646 728.343 -5.25431 712.756 -5.25431 712.756Z" fill="#FF5B7E"></path><path d="M-63.6378 666.334C-63.6378 666.334 99.1107 739.365 161.851 810.387C161.851 810.387 35.0843 795.99 8.21402 782.663C-2.16315 777.518 -15.2373 759.001 -27.3779 738.21C-17.6646 728.348 -5.25016 712.756 -5.25016 712.756L-41.6968 712.052C-54.3519 687.598 -63.6378 666.334 -63.6378 666.334Z" fill="#E03268"></path><path d="M-58.443 783.061C-36.5269 768.832 -14.4199 761.218 6.97342 758.178C13.2429 766.492 20.9438 776.27 20.9438 776.27L21.7571 756.78C103.845 752.793 171.867 811.445 171.867 811.445C124.321 843.399 83.7628 852.212 50.5401 849.359C48.5734 842.54 45.7851 832.364 45.7851 832.364L39.9181 848.022C23.9935 845.368 9.94012 840.071 -2.19632 833.594C0.911438 825.47 4.18515 816.188 4.18515 816.188L-13.5071 826.904C-43.1573 807.578 -58.443 783.061 -58.443 783.061Z" fill="#FF5B7E"></path><path d="M50.5401 849.358C48.5734 842.54 45.7851 832.364 45.7851 832.364L39.9181 848.022C23.9935 845.368 9.94012 840.071 -2.19632 833.594C0.911438 825.47 4.18515 816.188 4.18515 816.188L-13.5071 826.904C-43.1532 807.573 -58.443 783.061 -58.443 783.061C37.2046 771.279 171.867 811.445 171.867 811.445C124.321 843.403 83.7628 852.212 50.5401 849.358Z" fill="#E03268"></path><path d="M420.546 257.224L449.926 234.217C447.022 206.462 443.093 183.383 443.093 183.383C404.003 200.458 377.884 225.231 360.673 252.733L370.013 296.288L350.005 272.414C313.774 350.268 336.939 439.811 336.939 439.811C336.939 439.811 432.661 350.029 447.391 322.605C453.08 312.018 453.735 288.851 452.395 264.396C439.118 262.317 420.546 257.224 420.546 257.224Z" fill="#02CCC0"></path><path d="M443.093 183.383C443.093 183.383 349.727 343.197 336.939 439.807C336.939 439.807 432.661 350.024 447.391 322.601C453.08 312.013 453.735 288.846 452.395 264.392C439.122 262.317 420.55 257.229 420.55 257.229L449.93 234.221C447.018 206.462 443.093 183.383 443.093 183.383Z" fill="#06BFAD"></path><path d="M502.036 281.9C476.44 283.767 454.262 291.16 435.147 301.846C434.529 312.495 433.533 325.216 433.533 325.216L422.317 309.801C353.125 357.072 329.325 446.837 329.325 446.837C385.448 443.669 423.338 425.9 448.918 403.119C446.835 396.34 443.603 386.314 443.603 386.314L456.872 395.491C468.44 383.522 477.05 370.545 483.456 357.785C476.519 353.064 468.822 347.498 468.822 347.498L489.07 345.361C502.824 311.327 502.036 281.9 502.036 281.9Z" fill="#02CCC0"></path><path d="M448.926 403.119C446.843 396.34 443.611 386.314 443.611 386.314L456.88 395.491C468.448 383.522 477.058 370.545 483.464 357.785C476.527 353.064 468.83 347.498 468.83 347.498L489.078 345.361C502.825 311.327 502.04 281.9 502.04 281.9C417.558 331.149 329.334 446.837 329.334 446.837C385.452 443.665 423.342 425.9 448.926 403.119Z" fill="#06BFAD"></path><path d="M736.89 395.747H754.362C751.503 393.663 747.931 392.416 744.039 392.416H306.372C283.473 392.416 264.913 409.963 264.913 431.608V456.5C264.913 478.145 283.477 495.693 306.372 495.693L739.143 495.551L736.89 395.747Z" fill="#E03268"></path><path d="M301.625 456.5V431.608C301.625 409.963 320.189 392.416 343.084 392.416H333.686C310.787 392.416 292.227 409.963 292.227 431.608V456.5C292.227 478.145 310.791 495.693 333.686 495.693L342.96 495.688C320.118 495.622 301.625 478.105 301.625 456.5Z" fill="#FEB546"></path><path d="M404.127 456.5V431.608C404.127 409.963 422.691 392.416 445.59 392.416H436.192C413.293 392.416 394.729 409.963 394.729 431.608V456.5C394.729 478.145 413.293 495.693 436.192 495.693L445.466 495.688C422.62 495.622 404.127 478.105 404.127 456.5Z" fill="#FEB546"></path><path d="M488.419 392.508C466.519 392.508 448.769 409.286 448.769 429.988V458.12C448.769 478.818 466.519 495.6 488.419 495.6H760.876V489.308H759.752L690.489 483.109L676.49 431.192C676.49 431.192 703.509 402.503 705.273 401.764C707.036 401.026 759.756 398.778 759.756 398.778L760.88 398.765V392.508H488.419Z" fill="#FF5B7E"></path><path d="M743.205 443.868C743.205 413.516 759.797 398.8 759.797 398.8H493.995C473.884 398.8 457.577 414.215 457.577 433.227V454.881C457.577 473.893 473.884 489.308 493.995 489.308H759.797C759.797 489.304 743.205 482.087 743.205 443.868Z" fill="#DAEEF7"></path><path d="M457.582 433.227V454.881C457.582 457.726 457.955 460.491 458.644 463.137C467.61 442.404 484.788 422.436 517.496 416.011C593.858 401.021 759.802 398.8 759.802 398.8H493.999C473.884 398.8 457.582 414.215 457.582 433.227Z" fill="#DAEEF7"></path><path d="M729.682 602.173H749.458C746.221 599.563 742.176 598.001 737.773 598.001H242.42C216.504 598.001 195.493 619.964 195.493 647.056V678.218C195.493 705.309 216.5 727.273 242.42 727.273L732.23 727.1L729.682 602.173Z" fill="#284C7A"></path><path d="M448.462 598.116C423.678 598.116 403.588 619.119 403.588 645.029V680.244C403.588 706.154 423.678 727.157 448.462 727.157H756.831V719.282H755.557L677.162 711.521L661.316 646.538C661.316 646.538 691.9 610.629 693.891 609.704C695.887 608.779 755.553 605.97 755.553 605.97L756.827 605.956V598.125H448.462V598.116Z" fill="#55769F"></path><path d="M736.832 662.405C736.832 624.411 755.611 605.992 755.611 605.992H454.777C432.01 605.992 413.558 625.283 413.558 649.082V676.187C413.558 699.982 432.014 719.277 454.777 719.277H755.611C755.611 719.282 736.832 710.247 736.832 662.405Z" fill="#DAEEF7"></path><path d="M413.558 649.087V676.192C413.558 679.753 413.982 683.213 414.762 686.527C424.907 660.573 444.354 635.579 481.373 627.544C567.801 608.779 755.615 605.996 755.615 605.996H454.781C432.014 605.996 413.558 625.287 413.558 649.087Z" fill="#DAEEF7"></path><path d="M179.17 498.737H159.391C162.627 496.666 166.677 495.427 171.079 495.427H666.623C692.551 495.427 713.567 512.856 713.567 534.35V559.074C713.567 580.573 692.551 597.997 666.623 597.997L176.618 597.86L179.17 498.737Z" fill="#02CCC0"></path><path d="M460.499 495.52C485.294 495.52 505.393 512.188 505.393 532.744V560.685C505.393 581.246 485.294 597.908 460.499 597.908H152.009V591.656H153.283L231.707 585.498L247.557 533.934C247.557 533.934 216.965 505.44 214.969 504.706C212.973 503.971 153.283 501.741 153.283 501.741L152.009 501.728V495.511H460.499V495.52Z" fill="#06BFAD"></path><path d="M172.021 546.531C172.021 516.382 153.233 501.768 153.233 501.768H454.183C476.958 501.768 495.418 517.077 495.418 535.961V557.468C495.418 576.352 476.958 591.661 454.183 591.661H153.229C153.229 591.661 172.021 584.489 172.021 546.531Z" fill="#DAEEF7"></path><path d="M495.418 535.961V557.468C495.418 560.295 494.995 563.039 494.215 565.667C484.066 545.075 464.61 525.24 427.579 518.864C341.117 503.976 153.229 501.768 153.229 501.768H454.179C476.954 501.768 495.418 517.077 495.418 535.961Z" fill="#DAEEF7"></path><path opacity="0.5" d="M622.786 559.079V534.355C622.786 512.856 601.771 495.432 575.842 495.432H622.898C648.827 495.432 669.843 512.86 669.843 534.355V559.079C669.843 580.578 648.827 598.006 622.898 598.006L576.465 597.992C602.103 597.709 622.786 580.401 622.786 559.079Z" fill="#55769F"></path><path d="M141.756 731.233H120.434C123.923 728.919 128.288 727.534 133.035 727.534H667.245C695.194 727.534 717.853 747.006 717.853 771.022V798.649C717.853 822.67 695.194 842.138 667.245 842.138L139.01 841.983L141.756 731.233Z" fill="#FEB546"></path><path d="M445.038 727.64C471.768 727.64 493.435 746.263 493.435 769.23V800.45C493.435 823.418 471.768 842.04 445.038 842.04H112.479V835.058H113.853L198.397 828.178L215.484 770.567C215.484 770.567 182.502 738.732 180.352 737.909C178.203 737.086 113.853 734.6 113.853 734.6L112.479 734.586V727.64H445.038Z" fill="#F4A640"></path><path d="M134.047 784.637C134.047 750.953 113.795 734.626 113.795 734.626H438.226C462.776 734.626 482.68 751.732 482.68 772.828V796.857C482.68 817.958 462.776 835.059 438.226 835.059H113.795C113.795 835.059 134.047 827.046 134.047 784.637Z" fill="#DAEEF7"></path><path d="M482.68 772.823V796.853C482.68 800.012 482.224 803.078 481.386 806.016C470.444 783.008 449.47 760.846 409.55 753.723C316.343 737.086 113.795 734.622 113.795 734.622H438.226C462.776 734.622 482.68 751.727 482.68 772.823Z" fill="#DAEEF7"></path><path d="M885.514 854H-16.9716C-19.2122 854 -21.0337 852.062 -21.0337 849.668V845.682C-21.0337 843.293 -19.2163 841.35 -16.9716 841.35H885.51C887.751 841.35 889.572 843.288 889.572 845.682V849.668C889.572 852.062 887.755 854 885.514 854Z" fill="#C4DFE8"></path><path d="M-26.5522 424.821L147.383 318.734L170.892 368.39L-7.08416 468.796L-26.5522 424.821Z" fill="#F4A640"></path><path d="M301.223 122.635C301.223 122.635 299.849 137.059 289.174 138.058C299.849 139.054 301.223 153.482 301.223 153.482C301.223 153.482 302.596 139.058 313.272 138.058C302.592 137.063 301.223 122.635 301.223 122.635Z" fill="#02CCC0"></path><path d="M116.782 11.8179C116.782 11.8179 114.957 31.0336 100.737 32.361C114.957 33.6883 116.782 52.904 116.782 52.904C116.782 52.904 118.608 33.6883 132.827 32.361C118.608 31.0336 116.782 11.8179 116.782 11.8179Z" fill="#FEB546"></path><path d="M42.2873 183.675C42.2873 183.675 41.0592 196.577 31.5118 197.471C41.0592 198.365 42.2873 211.267 42.2873 211.267C42.2873 211.267 43.5155 198.365 53.0628 197.471C43.5155 196.577 42.2873 183.675 42.2873 183.675Z" fill="#FF5B7E"></path><path d="M888.303 491.512C888.303 491.512 886.477 510.727 872.258 512.055C886.477 513.387 888.303 532.598 888.303 532.598C888.303 532.598 890.132 513.382 904.348 512.055C890.128 510.727 888.303 491.512 888.303 491.512Z" fill="#FF5B7E"></path><path d="M926.284 301.788C926.284 301.788 924.455 321.004 910.24 322.331C924.459 323.663 926.284 342.874 926.284 342.874C926.284 342.874 928.11 323.659 942.33 322.331C928.11 321.004 926.284 301.788 926.284 301.788Z" fill="#02CCC0"></path><path d="M482.68 0C482.68 0 480.85 19.2157 466.631 20.5431C480.85 21.8704 482.68 41.0862 482.68 41.0862C482.68 41.0862 484.506 21.8704 498.725 20.5431C484.506 19.2157 482.68 0 482.68 0Z" fill="#FF5B7E"></path><path d="M787.303 160.464C787.303 160.464 786.311 172.596 778.581 173.437C786.311 174.278 787.303 186.41 787.303 186.41C787.303 186.41 788.294 174.278 796.024 173.437C788.294 172.596 787.303 160.464 787.303 160.464Z" fill="#FEB546"></path><path d="M163.353 751.749L139.337 753.046L136.3 829.01L124.018 835.32L124.612 838.089L129.176 839.24C129.176 839.24 143.947 838.97 144.391 838.97C144.835 838.97 147.876 835.386 147.876 835.386L147.42 834.762L149.872 832.984L163.353 751.749Z" fill="#FFC0BB"></path><path d="M228.4 835.32C228.4 835.32 216.409 828.895 216.11 829.01L218.828 751.656L189.057 751.749L202.538 832.979L204.015 834.05C203.646 835.399 203.351 836.568 203.285 836.935C203.094 837.948 208.355 838.019 210.193 838.355C212.031 838.696 217.355 839.302 220.782 840.315C224.205 841.328 228.516 838.355 228.516 838.355L228.4 835.32Z" fill="#FFC0BB"></path><path d="M229.201 542.951C225.736 533.341 222.363 537.146 216.106 525.523C215.11 523.674 214.392 521.284 213.894 519.077C212.392 512.488 209.148 506.467 204.335 502.033C189.667 488.525 173.07 494.52 173.07 494.52C173.07 494.52 177.377 520.63 178.199 525.926C174.531 531.244 170.838 536.677 170.838 536.677C170.838 536.677 163.116 579.6 175.232 583.219C187.348 586.838 189.551 581.033 195.472 578.007C201.389 574.98 207.164 583.241 216.002 577.494C222.757 573.104 219.326 562.154 222.898 560.101C226.467 558.048 232.943 553.327 229.201 542.951Z" fill="#FF5500"></path><path d="M166.784 516.179C166.569 516.077 161.013 512.736 155.814 509.604L188.115 471.261C188.115 471.261 178.327 469.239 177.73 469.159C177.137 469.08 163.1 473.739 163.1 473.739L148.627 477.92C137.586 520.895 123.832 528.674 123.828 528.678C122.168 529.855 120.595 531.426 119.006 534.164C113.525 543.62 119.073 549.54 122.222 552.265C125.375 554.991 120.102 565.07 125.973 570.72C133.661 578.118 140.773 571.14 146.059 575.286C151.349 579.427 152.503 585.573 165.038 584.409C177.572 583.25 177.448 539.545 177.448 539.545C177.448 539.545 167.191 516.369 166.784 516.179Z" fill="#FF5500"></path><path d="M221.616 594.519C221.616 594.519 232.275 648.786 229.18 654.653C226.085 660.52 185.51 662.352 185.51 662.352L183.792 592.683L199.264 567.751L221.616 594.519Z" fill="#FF5B7E"></path><path d="M208.749 657.339L201.169 635.19C201.169 635.19 176.215 625.495 174.63 625.38C173.045 625.261 151.922 635.19 151.922 635.19C151.922 635.19 145.466 649.127 144.204 651.631C143.507 653.016 145.117 661.551 146.694 668.882L137.744 669.329L131.798 809.383C131.798 809.383 144.686 816.781 158.561 810.441L169.958 688.111L179.871 686.527L194.738 807.799C194.738 807.799 206.633 817.312 223.483 809.383L212.318 674.417C211.832 668.581 210.633 662.838 208.749 657.339Z" fill="#07085B"></path><path d="M160.216 551.278C160.216 551.278 171.286 548.805 191.883 550.362C212.48 551.92 182.356 564.295 182.356 564.295C182.356 564.295 171.784 563.928 171.328 563.835C170.875 563.747 160.216 551.278 160.216 551.278Z" fill="#FFC0BB"></path><path d="M186.41 538.872H168.125V573.096H186.41V538.872Z" fill="#FFC0BB"></path><path d="M186.381 544.721V533.049H168.125V542.978C172.058 545.23 177.875 546.526 186.381 544.721Z" fill="#F99893"></path><path d="M211.998 500.777C210.251 499.856 208.222 500.02 206.384 501.016C207.015 483.384 193.53 468.553 176.547 469.181C159.565 468.553 146.08 483.384 146.71 501.016C144.872 500.025 142.843 499.861 141.097 500.777C137.744 502.542 136.698 507.595 138.769 512.068C140.835 516.541 145.233 518.736 148.586 516.97C149.051 516.727 149.47 516.413 149.843 516.05C151.764 530.625 163.17 541.553 176.547 541.35C189.929 541.553 201.331 530.625 203.252 516.05C203.625 516.413 204.044 516.727 204.509 516.97C207.861 518.736 212.26 516.541 214.326 512.068C216.392 507.595 215.351 502.538 211.998 500.777Z" fill="#FFC0BB"></path><path d="M169.004 507.277C169.079 508.754 168.017 510.015 166.635 510.099C165.249 510.179 164.067 509.046 163.988 507.573C163.913 506.095 164.975 504.834 166.357 504.75C167.743 504.666 168.93 505.799 169.004 507.277Z" fill="#333333"></path><path d="M190.622 507.524C190.696 509.002 189.634 510.263 188.252 510.347C186.867 510.427 185.684 509.294 185.605 507.821C185.53 506.343 186.593 505.082 187.974 504.998C189.364 504.914 190.547 506.046 190.622 507.524Z" fill="#333333"></path><path d="M171.759 501.795C170.502 501.33 169.307 500.963 168.116 500.742C166.925 500.516 165.751 500.458 164.606 500.587C163.465 500.733 162.316 500.985 161.216 501.507L160.789 501.675C160.648 501.733 160.519 501.826 160.378 501.892L159.54 502.325C158.976 502.626 158.453 503.011 157.826 503.308C158.162 502.706 158.544 502.109 158.988 501.569C159.478 501.091 159.934 500.52 160.531 500.157C161.648 499.29 163.033 498.808 164.423 498.644C165.826 498.485 167.253 498.719 168.519 499.273C169.78 499.839 170.938 500.657 171.759 501.795Z" fill="#FF5500"></path><path d="M181.883 501.755C182.697 500.613 183.85 499.786 185.103 499.206C186.369 498.644 187.792 498.401 189.194 498.547C190.588 498.702 191.978 499.175 193.099 500.029C193.7 500.387 194.157 500.954 194.65 501.427C195.099 501.967 195.484 502.555 195.825 503.157C195.198 502.865 194.671 502.485 194.107 502.188L193.265 501.759C193.124 501.693 192.995 501.604 192.854 501.547L192.426 501.383C191.323 500.865 190.173 500.622 189.032 500.489C187.883 500.365 186.709 500.436 185.522 500.671C184.327 500.905 183.136 501.277 181.883 501.755Z" fill="#FF5500"></path><path d="M177.784 503.613C177.659 505.02 177.751 506.427 178 507.821C178.124 508.52 178.303 509.21 178.556 509.9C178.821 510.582 179.145 511.272 179.73 511.865C180.398 512.413 180.688 512.581 180.879 513.077C181.074 513.515 180.987 514.068 180.78 514.599C180.311 515.679 179.236 516.488 178.054 517.086C179.352 517.019 180.78 516.466 181.63 515.117C182.045 514.462 182.269 513.533 182.004 512.661C181.73 511.758 181.24 511.44 180.713 510.993C180.244 510.595 179.946 510.033 179.643 509.396C179.361 508.825 179.17 508.183 178.946 507.555C178.535 506.276 178.178 504.954 177.784 503.613Z" fill="#F99893"></path><path d="M169.552 520.404C170.245 520.913 170.962 521.377 171.709 521.771C172.452 522.178 173.211 522.537 173.996 522.829C175.56 523.408 177.195 523.767 178.838 523.767C180.481 523.776 182.111 523.417 183.642 522.762C185.169 522.085 186.58 521.112 187.895 519.988C187.315 520.639 186.688 521.249 186.012 521.793C185.335 522.342 184.593 522.793 183.829 523.2C183.053 523.585 182.24 523.891 181.402 524.094C180.56 524.284 179.701 524.386 178.842 524.391C177.12 524.373 175.415 523.979 173.842 523.271C172.269 522.572 170.792 521.625 169.552 520.404Z" fill="#F99893"></path><path d="M212.824 558.119C202.916 547.863 189.219 550.04 189.219 550.04C187.688 551.672 186.153 552.907 184.638 553.827C182.468 555.004 179.742 556.022 176.705 556.106C176.651 556.106 176.597 556.11 176.543 556.106C176.489 556.106 176.435 556.101 176.382 556.106C173.344 556.022 170.618 555.004 168.448 553.827C166.934 552.902 165.399 551.672 163.867 550.04C163.867 550.04 150.171 547.863 140.263 558.119C130.354 568.375 120.446 590.993 120.446 590.993C120.446 590.993 132.977 603.178 144.926 604.731C144.926 604.731 150.756 633.318 151.922 635.185C151.922 635.185 157.934 638.198 166.681 639.773C169.863 640.419 172.992 640.685 175.991 640.702C176.178 640.707 176.365 640.707 176.547 640.707C176.734 640.707 176.921 640.707 177.103 640.702C180.103 640.689 183.232 640.419 186.414 639.773C195.157 638.198 201.173 635.185 201.173 635.185C202.339 633.322 208.169 604.731 208.169 604.731C220.118 603.178 232.649 590.993 232.649 590.993C232.649 590.993 222.732 568.375 212.824 558.119Z" fill="#02CCC0"></path><path d="M177.61 627.473C177.61 627.473 181.29 626.823 183.319 629.703L183.178 637.127L178.68 639.362C178.68 639.362 173.112 634.305 173.531 634.176C173.95 634.048 177.61 627.473 177.61 627.473Z" fill="#E03268"></path><path d="M189.065 675.966L129.806 694.248L124.064 647.985L183.323 629.707L189.065 675.966Z" fill="#E03268"></path><path d="M124.915 686.802L130.118 691.487L186.833 674.152L181.738 630.557L177.734 628.77L124.915 686.802Z" fill="#DAEEF7"></path><path d="M186.833 674.152L182.792 670.4L175.39 661.732L175.838 637.884L177.734 628.77L181.755 630.486L186.833 674.152Z" fill="#DAEEF7"></path><path d="M182.792 670.4L123.533 688.682L118.355 645.755L177.61 627.473L182.792 670.4Z" fill="#FF5B7E"></path><path d="M153.71 579.918C152.337 581.701 151.084 583.56 149.93 585.48C148.785 587.4 147.756 589.396 146.922 591.471C146.08 593.541 145.441 595.705 145.08 597.926C144.715 600.152 144.677 602.43 144.926 604.731C144.262 602.532 144.063 600.147 144.296 597.816C144.507 595.475 145.138 593.196 145.993 591.042C146.876 588.9 147.976 586.865 149.283 585.002C150.577 583.139 152.034 581.392 153.71 579.918Z" fill="#DAEEF7"></path><path d="M141.416 657.945C130.981 639.11 135.81 616.191 139.935 603.523C131.744 600.709 124.155 594.351 121.475 591.944C104.82 632.039 133.026 666.351 133.026 666.351L133.08 666.294C133.62 667.586 134.01 668.741 134.01 668.741C140.661 681.559 140.951 681.355 141.428 681.174C141.906 680.992 140.59 674.895 141.18 674.913C141.769 674.931 145.964 682.275 146.271 681.585C146.578 680.895 143.478 673.612 143.93 673.488C144.383 673.364 148.337 680.514 149.204 679.899C150.075 679.284 145.495 671.603 146.374 671.413C147.254 671.223 151.756 679.218 152.465 678.519C153.059 677.93 148.229 668.86 146.677 665.989C146.478 665.617 146.748 665.161 147.146 665.183C153.316 665.564 153.814 665.21 153.698 664.48C153.615 663.962 146.204 660.277 141.416 657.945Z" fill="#FFC0BB"></path><path d="M211.218 552.048C198.43 601.134 213.865 615.615 213.932 615.991L211.621 627.411C211.621 627.411 180.124 605.572 200.09 547.389C200.65 545.752 202.322 544.898 203.804 545.628L209.778 548.579C211.007 549.19 211.579 550.659 211.218 552.048Z" fill="#E03268"></path><path d="M239.138 671.913C239.138 671.913 238.732 670.825 238.35 669.542C238.35 669.537 238.35 669.528 238.354 669.524H238.35L237.748 664.767C237.375 653.976 235.694 615.717 230.168 593.205C225.964 596.763 217.031 603.492 208.359 604.705C213.795 616.823 225.172 644.751 227.143 670.143C225.139 674.984 222.438 681.687 222.67 682.081C223.019 682.678 223.583 682.594 227.732 678.187C228.002 677.899 228.462 678.046 228.541 678.444C229.134 681.523 231.051 691.191 231.819 691.208C232.732 691.231 231.217 682.545 231.948 682.09C232.682 681.638 233.96 690.147 234.939 690.001C235.918 689.855 234.508 682.134 234.902 681.921C235.296 681.705 237.387 688.948 238.014 689.231C238.64 689.514 237.288 681.492 237.694 681.09C238.101 680.683 240.761 685.886 241.205 685.696C241.648 685.505 241.976 685.457 239.138 671.913Z" fill="#FFC0BB"></path><path d="M141.445 500.587C141.445 500.587 139.594 464.093 177.73 461.682C177.73 461.682 176.543 497.529 146.706 501.011L144.408 496.246L141.445 500.587Z" fill="#FF5500"></path><path d="M177.73 461.682C177.73 461.682 208.666 459.832 210.305 500.224C210.305 500.224 208.056 500.051 206.384 501.011C206.384 501.011 181.883 494.476 175.801 469.159L177.73 461.682Z" fill="#FF5500"></path><path d="M134.433 838.089C128.217 838.753 125.28 837.311 124.018 835.315L119.807 838.249C118.139 839.381 118.89 842.142 120.873 842.142H148.237C149.204 842.142 149.984 841.306 149.984 840.28V832.395C148.221 834.324 144.076 837.063 134.433 838.089Z" fill="#07085B"></path><path d="M217.986 838.089C224.201 838.753 227.139 837.311 228.4 835.315L232.612 838.249C234.279 839.381 233.528 842.142 231.545 842.142H204.185C203.219 842.142 202.438 841.306 202.438 840.28V832.395C204.198 834.324 208.343 837.063 217.986 838.089Z" fill="#07085B"></path><path d="M790.46 576.861L822.081 579.569L811.874 606.846L795.912 605.479L789.265 628.216C787.647 627.429 786.452 626.831 786.216 626.659C785.73 626.314 783.967 615.031 782.419 604.377L790.46 576.861Z" fill="#DAEEF7"></path><path d="M808.505 827.687V839.576C808.505 840.558 809.248 841.355 810.169 841.355H836.193C838.077 841.355 838.794 838.726 837.205 837.642L822.604 827.692C822.604 827.687 816.878 832.165 808.505 827.687Z" fill="#E03268"></path><path d="M757.42 323.871C757.038 324.03 756.644 323.676 756.727 323.252C757.379 319.951 759.366 309.553 758.619 309.182C757.727 308.743 755.74 317.991 754.831 318.101C753.926 318.212 756.08 309.248 755.055 308.943C754.03 308.637 752.325 316.885 751.852 316.92C751.379 316.951 752.221 308.867 751.719 308.301C751.217 307.739 749.333 316.252 748.769 316.469C748.205 316.681 747.674 310.345 747.159 310.327C746.645 310.314 746.304 310.212 743.665 324.849C743.665 324.849 743.512 330.211 742.62 331.472L744.599 335.782L750.74 335.999C750.74 335.999 764.08 323.128 763.968 322.349C763.864 321.601 763.275 321.424 757.42 323.871Z" fill="#FFC0BB"></path><path d="M820.612 327.11C820.882 327.437 821.388 327.313 821.492 326.897C822.322 323.641 824.998 313.42 825.824 313.456C826.803 313.5 824.625 322.698 825.38 323.238C826.139 323.778 828.052 314.747 829.093 314.978C830.135 315.203 828.131 323.375 828.537 323.632C828.944 323.893 831.649 316.283 832.338 316.026C833.027 315.77 831.064 324.265 831.475 324.729C831.886 325.194 835.068 319.809 835.533 320.048C835.998 320.287 836.346 320.362 832.438 334.671C832.438 334.671 830.284 339.52 830.537 341.073L826.932 343.949L821.372 341.157C821.372 341.157 814.999 323.22 815.434 322.579C815.849 321.959 816.447 322.088 820.612 327.11Z" fill="#FFC0BB"></path><path d="M771.822 444.307L771.917 469.332L749.126 465.584L752.926 437.444L771.822 444.307Z" fill="#FFC0BB"></path><path opacity="0.6" d="M751.175 450.399L752.926 437.448L771.843 446.682L771.851 451.62C767.295 452.806 758.764 453.872 751.175 450.399Z" fill="#FC8D84"></path><path d="M730.637 826.365V839.404C730.637 840.479 729.82 841.355 728.807 841.355H700.182C698.111 841.355 697.323 838.47 699.07 837.284L715.127 826.369C715.127 826.365 721.426 831.276 730.637 826.365Z" fill="#E03268"></path><path d="M704.493 604.877C704.551 602.09 697.742 610.31 697.87 608.085C700.543 561.791 785.361 600.607 785.361 600.607L806.065 616.81L829.442 831.355C829.442 831.355 816.754 835.271 808.405 832.068L756.644 648.22L750.279 645.609C750.275 645.605 721.969 624.544 704.493 604.877Z" fill="#07085B"></path><path d="M697.775 609.97C697.75 610.509 697.729 611.062 697.709 611.633C697.725 611.067 697.75 610.514 697.775 609.97Z" fill="#06BFAD"></path><path d="M697.705 611.664C697.684 612.244 697.663 612.841 697.646 613.447C697.667 612.841 697.684 612.244 697.705 611.664Z" fill="#06BFAD"></path><path d="M697.642 613.682C697.626 614.315 697.609 614.956 697.597 615.615C697.609 614.961 697.626 614.315 697.642 613.682Z" fill="#06BFAD"></path><path d="M697.871 608.08C697.842 608.58 697.817 609.102 697.792 609.633C697.817 609.102 697.842 608.58 697.871 608.08Z" fill="#06BFAD"></path><path d="M697.883 597.563C715.36 617.23 750.279 645.605 750.279 645.605L756.644 648.215L750.279 645.605L730.6 831.351C730.6 831.351 716.575 834.2 708.559 829.572C708.559 829.572 696.742 652.764 697.883 597.563Z" fill="#07085B"></path><path d="M829.442 831.351C829.442 831.351 823.978 833.037 817.862 833.293C823.978 833.041 829.442 831.351 829.442 831.351Z" fill="#06BFAD"></path><path d="M810.854 832.789C811.418 832.913 811.99 833.01 812.571 833.089C811.99 833.01 811.414 832.908 810.854 832.789Z" fill="#06BFAD"></path><path d="M817.862 833.293C816.405 833.355 814.911 833.333 813.447 833.192C814.911 833.333 816.405 833.355 817.862 833.293Z" fill="#06BFAD"></path><path d="M806.065 616.806L809.401 647.423C800.572 651.069 779.058 654.963 762.843 617.142C757.731 605.213 756.416 596.63 757.358 590.466C772.884 594.895 785.361 600.599 785.361 600.599L806.065 616.806Z" fill="#050645"></path><path d="M728.243 491.826C729.222 491.826 743.914 456.319 743.914 456.319C756.482 465.717 773.54 459.191 773.54 459.191C773.54 459.191 842.176 593.13 796.149 614.014C750.117 634.902 706.7 609.488 706.7 609.488C706.7 609.488 696.908 582.334 696.908 581.29C696.904 580.246 727.263 491.826 728.243 491.826Z" fill="#DAEEF7"></path><path d="M817.687 341.441C817.687 341.441 820.662 404.986 815.077 416.636C796.551 455.275 773.536 459.191 773.536 459.191C773.536 459.191 765.619 594.347 772.15 626.721C772.15 626.721 793.858 633.858 825.853 617.845C825.853 617.845 801.368 513.064 802.675 499.834C802.675 499.834 841.848 462.584 843.155 418.724C844.462 374.859 833.687 335.87 833.687 335.87L817.687 341.441Z" fill="#55769F"></path><path d="M712.082 621.845C712.082 621.845 714.53 571.542 725.305 523.85C736.076 476.159 743.914 456.315 743.914 456.315C729.467 439.342 731.869 424.002 733.143 404.096C734.612 381.12 755.669 335.171 755.669 335.171L741.466 325.251C673.403 412.454 711.107 481.902 711.107 481.902C711.107 481.902 685.643 577.98 682.216 607.222C682.211 607.226 695.759 615.58 712.082 621.845Z" fill="#55769F"></path><path d="M802.012 499.688C801.194 499.069 800.223 498.122 799.277 496.914C796.389 493.198 794.896 489.016 793.858 484.344C794.485 486.34 796.157 492.136 799.684 496.547C801.265 498.472 802.099 499.122 802.866 499.649C802.742 499.768 802.671 499.834 802.671 499.834C802.663 499.923 802.655 500.016 802.651 500.109C801.746 500.308 800.153 500.37 797.477 498.812C795.813 497.883 794.497 496.724 793.124 495.481C794.024 496.162 795.879 497.6 797.638 498.476C798.858 499.118 800.651 499.79 802.012 499.688Z" fill="white"></path><path d="M711.621 481.583C712.787 480.795 713.799 479.667 714.729 478.53C717.617 474.92 719.202 470.641 720.554 466.327C719.525 470.977 718.036 475.167 715.135 478.897C714.189 480.101 713.231 481.039 712.401 481.672C713.04 481.716 713.808 481.587 714.318 481.433C715.16 481.207 715.986 480.875 716.778 480.459C718.413 479.641 720.027 478.42 721.293 477.464C720.073 478.566 718.679 479.822 716.94 480.795C716.152 481.256 715.314 481.636 714.438 481.915C713.55 482.154 712.65 482.357 711.646 482.065L711.123 481.915L711.621 481.583Z" fill="white"></path><path d="M739.122 393.247L737.744 410.419L740.288 412.127L744.993 391.217L739.122 393.247Z" fill="#07085B"></path><path d="M742.545 408.649C743.246 412.538 741.445 416.175 738.529 416.773C735.612 417.37 732.678 414.698 731.977 410.808C731.276 406.919 733.076 403.282 735.993 402.685C738.914 402.088 741.848 404.756 742.545 408.649Z" fill="#F99893"></path><path d="M738.371 424.52C737.624 419.547 737.732 414.463 738.147 410.096C738.234 409.158 738.272 408.22 738.292 407.278C738.379 403.477 739.122 399.583 740.682 395.752C745.703 383.421 757.959 375.939 770.469 377.593C787.323 379.823 798.431 396.734 795.186 414.021C797.145 413.352 799.169 413.534 800.754 414.733C803.8 417.038 804.074 422.197 801.373 426.254C798.671 430.312 794.012 431.732 790.966 429.427C790.543 429.108 790.178 428.728 789.863 428.307C785.697 442.718 772.266 451.656 758.756 448.527C748.503 446.151 740.039 437.077 738.371 424.52Z" fill="#FFC0BB"></path><path d="M769.531 410.786C768.868 412.561 770.071 414.481 771.897 414.472C772.892 414.467 773.809 413.791 774.179 412.808C774.847 411.03 773.639 409.105 771.809 409.118C770.814 409.127 769.897 409.804 769.531 410.786Z" fill="#333333"></path><path d="M748.184 407.379C747.52 409.158 748.727 411.074 750.553 411.065C751.549 411.061 752.466 410.379 752.831 409.397C753.491 407.618 752.287 405.702 750.462 405.716C749.47 405.716 748.553 406.393 748.184 407.379Z" fill="#333333"></path><path d="M766.208 429.493C764.884 430.197 763.395 430.719 762.175 430.967C760.789 431.254 759.366 431.347 757.98 431.139C756.59 430.94 755.254 430.422 754.034 429.67C752.823 428.9 751.74 427.9 750.756 426.781C751.752 428.281 752.661 429.148 753.831 430.02C755.043 430.865 756.333 431.414 757.914 431.666C759.37 431.869 760.856 431.759 762.266 431.365C763.669 430.975 765.021 430.369 766.208 429.493Z" fill="#F99893"></path><path d="M767.503 405.362C768.81 405.114 770.042 404.955 771.249 404.933C772.457 404.911 773.623 405.052 774.735 405.375C775.838 405.711 776.934 406.154 777.938 406.857C779.307 407.689 780.291 408.707 781.008 409.207C780.552 407.972 779.813 406.508 778.809 405.649C777.838 404.61 776.544 403.897 775.199 403.499C773.843 403.105 772.403 403.097 771.071 403.424C769.747 403.769 768.482 404.38 767.503 405.362Z" fill="#07085B"></path><path d="M757.532 403.61C756.897 402.349 755.885 401.335 754.731 400.557C753.569 399.791 752.2 399.309 750.798 399.216C749.404 399.132 747.964 399.362 746.731 400.017C745.52 400.486 744.375 401.632 743.578 402.636C744.474 402.384 745.599 401.787 747.192 401.459C748.358 401.136 749.528 401.092 750.673 401.15C751.823 401.225 752.972 401.49 754.109 401.924C755.25 402.357 756.37 402.928 757.532 403.61Z" fill="#07085B"></path><path d="M761.88 406.981C760.702 408.158 759.627 409.432 758.611 410.76C757.59 412.087 756.644 413.476 755.798 414.967C755.316 415.857 754.711 417.047 754.565 418.065C754.482 418.626 754.524 419.171 755.403 420.095C755.98 420.746 756.627 421.277 757.295 421.768C757.972 422.25 758.665 422.693 759.395 423.055C758.179 421.945 756.947 420.83 755.984 419.56C755.831 419.365 755.536 418.905 755.432 418.644C755.379 418.454 755.474 418.038 755.603 417.688C755.864 416.954 756.242 416.215 756.644 415.503C757.441 414.06 758.341 412.662 759.221 411.251C760.117 409.839 761.017 408.432 761.88 406.981Z" fill="#F99893"></path><path d="M742.122 374.912C742.122 374.912 733.662 373.173 744.08 367.727C754.499 362.28 780.042 359.108 793.398 371.306C793.398 371.306 797.887 365.161 801.924 367.86C805.962 370.559 797.721 373.541 797.721 373.541C797.721 373.541 803.36 374.7 804.447 378.04C805.252 380.509 801.804 379.779 799.949 379.231C803.016 380.576 812.028 389.655 800.323 414.445C798.252 413.41 784.855 393.035 784.855 393.035C784.855 393.035 757.93 402.468 762.839 394.646C762.839 394.646 731.458 403.061 739.064 387.894C739.068 387.898 727.5 386.044 742.122 374.912Z" fill="#07085B"></path><path d="M800.323 414.45C800.323 414.45 798.294 412.791 795.19 414.021C792.087 415.246 790.116 422.675 790.116 422.675C790.116 422.675 779.954 431.546 784.908 392.876C789.775 354.882 796.518 399.203 796.518 399.203L800.323 414.45Z" fill="#07085B"></path><path d="M730.728 294.368L726.334 293.908C727.102 293.461 728.031 293.24 729.01 293.342L839.11 304.885C844.869 305.491 849.134 310.394 848.632 315.84L848.055 322.101C847.553 327.548 842.475 331.472 836.716 330.866L727.849 319.415L730.728 294.368Z" fill="#E03268"></path><path d="M838.815 321.132L839.392 314.871C839.894 309.425 835.633 304.522 829.869 303.916L832.234 304.164C837.994 304.77 842.259 309.673 841.757 315.119L841.18 321.38C840.678 326.826 835.599 330.751 829.84 330.145L827.509 329.902C833.255 330.486 838.313 326.565 838.815 321.132Z" fill="#FEB546"></path><path d="M813.028 318.429L813.605 312.168C814.107 306.721 809.845 301.819 804.082 301.213L806.447 301.461C812.206 302.067 816.472 306.969 815.97 312.411L815.393 318.672C814.891 324.119 809.812 328.043 804.053 327.437L801.721 327.194C807.468 327.782 812.53 323.862 813.028 318.429Z" fill="#FEB546"></path><path d="M793.311 300.107C798.821 300.686 802.895 305.372 802.414 310.58L801.763 317.654C801.281 322.862 796.427 326.614 790.921 326.039L722.38 318.853L722.525 317.269L722.807 317.3L740.375 317.566L745.101 304.876C745.101 304.876 738.968 296.948 738.541 296.713C738.114 296.479 724.907 294.527 724.907 294.527L724.625 294.496L724.77 292.921L793.311 300.107Z" fill="#FF5B7E"></path><path d="M728.023 306.306C728.728 298.669 724.894 294.532 724.894 294.532L791.759 301.545C796.817 302.076 800.564 306.381 800.124 311.164L799.622 316.61C799.182 321.393 794.721 324.84 789.664 324.309L722.795 317.296C722.795 317.296 727.135 315.92 728.023 306.306Z" fill="#DAEEF7"></path><path d="M800.124 311.164L799.622 316.61C799.555 317.327 799.398 318.013 799.161 318.659C797.385 313.208 793.527 307.73 785.448 305.252C766.586 299.465 724.895 294.532 724.895 294.532L791.759 301.545C796.821 302.071 800.564 306.381 800.124 311.164Z" fill="#DAEEF7"></path><path d="M597.203 474.646L592.663 485.446C592.29 486.339 592.663 487.384 593.497 487.786L617.214 499.122C618.932 499.945 620.588 497.865 619.554 496.189L610.376 480.942C610.376 480.942 603.124 482.357 597.203 474.646Z" fill="#55769F"></path><path d="M567.075 474.646L562.536 485.446C562.162 486.339 562.536 487.384 563.374 487.786L587.087 499.122C588.804 499.945 590.46 497.865 589.427 496.189L580.249 480.942C580.249 480.942 572.992 482.357 567.075 474.646Z" fill="#55769F"></path><path d="M515.849 176.893L513.326 193.759L507.999 171.273C507.999 171.273 515.467 167.411 515.795 168.813C516.127 170.216 515.849 176.893 515.849 176.893Z" fill="#07085B"></path><path d="M473.465 213.191L471.162 242.349L495.29 241.119L492.505 215.297L473.465 213.191Z" fill="#FFC0BB"></path><path d="M493.829 227.58L492.505 215.302L473.465 213.196L472.668 223.293C476.452 227.31 483.261 231.478 493.829 227.58Z" fill="#F99893"></path><path d="M508.625 193.547C507.173 196.746 507.945 200.343 510.343 201.582C512.745 202.82 515.866 201.228 517.318 198.029C518.77 194.83 517.998 191.233 515.6 189.994C513.198 188.755 510.073 190.348 508.625 193.547Z" fill="#F99893"></path><path d="M512.123 195.892C512.247 195.06 512.422 194.232 512.608 193.409C513.359 190.091 513.559 186.534 513.036 182.826C511.359 170.897 502.36 161.385 491.153 159.734C476.058 157.509 462.756 169.428 461.818 185.215C460.266 184.153 458.47 183.808 456.835 184.459C453.694 185.706 452.337 190.109 453.797 194.294C455.262 198.48 458.992 200.86 462.133 199.613C462.569 199.44 462.967 199.201 463.332 198.913C463.818 212.435 473.523 223.501 485.912 224.12C491.974 224.421 497.609 222.169 501.986 218.222C507.936 213.563 510.949 203.661 512.123 195.892Z" fill="#FFC0BB"></path><path d="M493.331 187.073C493.381 188.649 493.393 190.184 493.468 191.693C493.559 193.166 493.709 194.741 494.265 195.776C494.829 196.613 495.273 197.152 495.285 198.183C495.319 199.228 494.804 200.157 494.161 200.728C492.846 201.909 491.136 202.019 489.725 201.648C491.165 201.378 492.547 200.847 493.352 199.843C493.725 199.343 493.97 198.785 493.883 198.263C493.821 197.683 493.655 197.568 493.003 196.599C492.543 195.759 492.393 194.909 492.306 194.086C492.236 193.259 492.244 192.458 492.315 191.662C492.46 190.087 492.775 188.542 493.331 187.073Z" fill="#F99893"></path><path d="M484.767 188.772C484.933 190.405 483.58 191.724 482.066 191.396C481.128 191.193 480.39 190.33 480.29 189.312C480.133 187.684 481.477 186.374 482.983 186.697C483.929 186.892 484.663 187.755 484.767 188.772Z" fill="#333333"></path><path d="M504.011 191.091C504.169 192.719 502.825 194.029 501.318 193.706C500.381 193.507 499.642 192.644 499.538 191.626C499.372 189.994 500.725 188.675 502.235 189.003C503.177 189.211 503.912 190.073 504.011 191.091Z" fill="#333333"></path><path d="M481.004 205.404C481.593 205.953 482.211 206.462 482.863 206.909C483.506 207.369 484.174 207.789 484.867 208.148C486.253 208.86 487.721 209.382 489.232 209.577C490.746 209.78 492.285 209.639 493.767 209.223C495.244 208.78 496.65 208.055 497.986 207.179C496.538 208.475 495.343 209.121 493.9 209.683C492.381 210.223 490.866 210.404 489.161 210.201C487.572 209.979 486.033 209.413 484.655 208.572C483.282 207.736 482.016 206.687 481.004 205.404Z" fill="#F99893"></path><path d="M487.605 183.737C486.46 183.361 485.381 183.074 484.315 182.897C483.249 182.72 482.207 182.693 481.191 182.822C480.178 182.968 479.162 183.198 478.182 183.671C477.431 183.919 475.614 185.06 475.141 185.282C475.697 184.193 476.502 183.021 477.502 182.375C478.489 181.574 479.734 181.114 480.987 180.946C482.249 180.782 483.539 180.981 484.684 181.472C485.825 181.968 486.867 182.706 487.605 183.737Z" fill="#07085B"></path><path d="M497.518 184.928C498.426 184.069 499.584 183.56 500.791 183.308C502.003 183.065 503.306 183.14 504.513 183.56C505.712 183.985 506.849 184.693 507.675 185.684C508.534 186.525 509.115 187.843 509.459 189.025C509.028 188.706 507.459 187.215 506.77 186.817C505.895 186.149 504.941 185.711 503.974 185.361C502.999 185.02 501.97 184.835 500.895 184.786C499.82 184.733 498.709 184.795 497.518 184.928Z" fill="#07085B"></path><path d="M486.755 349.958C486.755 349.958 481.722 386.354 514.7 392.694C547.678 399.035 588.709 397.146 588.709 397.146L594.418 480.751L611.633 481.689C611.633 481.689 655.964 365.523 594.605 347.365L539.462 347.653L516.758 345.923C516.758 345.923 493.779 339.87 493.51 341.02C493.24 342.175 487.294 350.538 486.755 349.958Z" fill="#070852"></path><path d="M456.445 350.153C456.445 350.153 451.412 386.549 484.39 392.889C517.368 399.23 558.399 397.34 558.399 397.34L564.108 480.946L581.323 481.884C581.323 481.884 625.654 365.718 564.295 347.56L509.152 347.848L486.448 346.118C486.448 346.118 463.469 340.065 463.2 341.215C462.934 342.37 456.988 350.728 456.445 350.153Z" fill="#10116B"></path><path d="M497.982 230.721C497.982 230.721 520.687 233.796 526.454 238.792C532.222 243.787 559.972 317.194 559.972 317.194L536.91 346.02L487.892 346.405C487.892 346.405 451.13 367.541 428.064 347.56C404.999 327.574 416.89 258.012 430.226 243.022C443.561 228.031 467.349 228.416 467.349 228.416C467.349 228.416 488.975 244.557 497.982 230.721Z" fill="#FF5B7E"></path><path d="M454.013 267.233C454.827 271.232 455.324 275.294 455.677 279.369C455.872 281.404 455.955 283.448 456.067 285.497C456.125 287.546 456.171 289.594 456.142 291.643C456.067 295.74 455.856 299.85 455.196 303.912C454.553 307.951 453.615 312.009 451.852 315.663C453.038 311.765 453.623 307.761 454.051 303.748C454.47 299.731 454.615 295.678 454.661 291.625C454.739 287.572 454.648 283.515 454.528 279.449C454.391 275.383 454.217 271.316 454.013 267.233Z" fill="white"></path><path d="M521.952 264.542C522.99 270.498 524.089 276.427 525.205 282.351C526.346 288.267 527.525 294.174 528.869 300.032C530.197 305.894 531.674 311.712 533.458 317.424C534.354 320.278 535.35 323.092 536.52 325.827C537.674 328.565 539.043 331.216 540.877 333.534C538.79 331.455 537.255 328.826 535.869 326.172C534.525 323.482 533.367 320.69 532.367 317.84C531.346 315 530.471 312.102 529.641 309.199C528.84 306.283 528.11 303.35 527.425 300.403C526.774 297.448 526.151 294.492 525.591 291.519C525.052 288.541 524.517 285.563 524.073 282.572C523.143 276.595 522.421 270.578 521.952 264.542Z" fill="white"></path><path d="M571.116 277.82C566.921 270.861 532.562 259.043 532.562 259.043C532.562 270.334 532.562 270.825 532.562 270.825L567.536 283.864L571.116 277.82Z" fill="#EDEDED"></path><path d="M568.648 277.347L528.745 257.729V265.348L567.66 280.316L568.648 277.347Z" fill="white"></path><path d="M566.428 277.347L524.313 260.357V273.489L566.004 280.316L566.428 277.347Z" fill="#EDEDED"></path><path d="M571.116 276.006C571.116 276.006 579.236 255.76 582.56 251.556C582.56 264.879 577.51 281.63 577.51 281.63L571.116 276.006Z" fill="white"></path><path d="M574.664 276.9L584.506 250.375V263.011L577.743 280.316L574.664 276.9Z" fill="#EDEDED"></path><path d="M577.743 277.347L588.473 251.556V260.751L577.743 277.347Z" fill="white"></path><path d="M577.743 356.816L591.269 331.972V252.503L577.743 277.347V356.816Z" fill="#26426E"></path><path d="M515.417 344.812L563.316 356.816V277.347L515.417 265.343V344.812Z" fill="#55769F"></path><path d="M563.316 277.347C567.536 275.192 576.373 275.953 577.743 277.347C577.021 281.891 564.39 282.785 563.316 277.347Z" fill="#E0E0E0"></path><path d="M563.316 356.816C563.316 358.763 577.809 358.763 577.809 356.816V277.347C576.344 279.657 564.951 279.595 563.316 277.347V356.816Z" fill="#3A5782"></path><path d="M533.363 329.406C533.217 328.189 524.558 326.831 521.371 326.654C518.961 326.521 502.966 325.951 497.53 325.689L497.928 327.181L497.845 333.769L496.953 338.131C501.725 338.454 513.393 338.941 515.82 339.454C519.065 340.14 524.695 342.746 524.695 342.746C524.695 342.746 527.035 342.18 524.06 340.808C521.67 339.706 519.994 338.007 519.284 337.158C518.878 336.671 519.318 335.804 519.616 335.888C527.716 338.153 528.55 338.525 528.55 338.525C528.55 338.525 538.068 338.467 528.604 336.189C522.932 334.822 520.898 334.025 520.392 333.348C520.176 333.061 520.562 332.074 520.907 332.052C525.824 331.729 534.645 333.587 532.23 332.366C530.259 331.371 524.052 330.282 521.641 329.871C521.492 329.844 521.255 328.888 521.911 328.826C526.587 328.419 533.495 330.534 533.363 329.406Z" fill="#FFC0BB"></path><path d="M448.47 314.65C450.461 315.168 452.428 315.761 454.432 316.208C456.42 316.712 458.436 317.084 460.432 317.531C464.448 318.314 468.481 318.991 472.523 319.597C476.568 320.163 480.622 320.685 484.684 321.101C488.734 321.53 492.85 321.898 496.854 322.137L497.393 322.168L497.514 322.668C497.858 324.114 498.082 325.53 498.252 326.977C498.422 328.419 498.493 329.875 498.493 331.331C498.48 332.786 498.364 334.246 498.14 335.689C497.891 337.127 497.493 338.538 496.953 339.892L496.908 340.012L496.821 340.074L492.368 343.259C490.887 344.321 489.398 345.374 487.896 346.41C489.29 345.215 490.701 344.047 492.115 342.883L496.36 339.392L496.227 339.569C496.671 338.264 496.987 336.91 497.161 335.53C497.318 334.145 497.389 332.751 497.352 331.348C497.31 329.95 497.177 328.552 496.995 327.163C496.804 325.782 496.547 324.38 496.207 323.07L496.862 323.601C494.746 323.539 492.738 323.398 490.68 323.238C488.634 323.079 486.589 322.902 484.547 322.676C480.464 322.225 476.39 321.685 472.336 320.995C468.282 320.296 464.249 319.455 460.258 318.447C458.266 317.902 456.274 317.38 454.316 316.721C452.337 316.119 450.399 315.38 448.47 314.65Z" fill="white"></path><path d="M516.334 160.938C516.334 160.938 523.903 161.199 515.961 154.372C508.015 147.545 486.688 139.541 473.021 147.239C473.021 147.239 470.286 141.041 466.336 142.523C462.386 144.001 468.905 148.266 468.905 148.266C468.905 148.266 463.859 148.093 462.32 150.73C461.183 152.682 464.27 152.766 465.963 152.677C463.092 153.199 452.076 160.615 457.602 184.295C459.565 183.835 470.764 166.521 470.764 166.521C470.764 166.521 496.364 181.689 493.833 169.628C493.833 169.628 520.359 187.277 516.596 172.698C516.592 172.703 526.848 173.503 516.334 160.938Z" fill="#07085B"></path><path d="M457.577 184.441C457.577 184.441 459.698 183.644 461.976 185.578C464.258 187.507 464.005 194.285 464.005 194.285C464.005 194.285 474.888 201.767 473.739 170.101C472.519 136.413 464.66 172.804 464.66 172.804L457.577 184.441Z" fill="#07085B"></path><path d="M339.445 816.047L343.984 826.847C344.358 827.74 343.984 828.785 343.15 829.187L319.438 840.523C317.72 841.342 316.064 839.266 317.098 837.59L326.276 822.343C326.271 822.343 333.524 823.758 339.445 816.047Z" fill="#07085B"></path><path d="M370.174 814.763L374.714 825.563C375.087 826.457 374.714 827.501 373.875 827.904L350.163 839.24C348.445 840.063 346.789 837.983 347.823 836.306L357.001 821.059C357.001 821.059 364.258 822.475 370.174 814.763Z" fill="#07085B"></path><path d="M397.891 465.036C397.891 465.036 372.046 460.39 363.374 491.18L374.079 508.263C374.079 508.263 396.526 499.065 396.617 498.166C396.704 497.264 397.891 465.036 397.891 465.036Z" fill="#FF5500"></path><path d="M439.491 478.906C439.491 478.906 447.03 490.994 450.872 495.79C460.544 507.847 461.793 504.064 467.805 514.44C474.295 525.634 467.731 532.642 463.996 535.872C460.262 539.098 466.507 551.035 459.557 557.725C450.453 566.481 442.035 558.225 435.773 563.132C429.512 568.038 428.143 575.308 413.301 573.936C398.46 572.56 398.605 520.811 398.605 520.811C398.605 520.811 410.754 493.374 411.235 493.149C411.712 492.914 439.491 478.906 439.491 478.906Z" fill="#FF5500"></path><path d="M363.378 491.18C363.378 491.18 362.49 500.675 359.548 506.144C352.138 519.904 348.146 515.4 344.043 526.78C339.611 539.062 347.283 544.655 351.511 547.084C355.739 549.517 351.677 562.481 359.677 567.68C370.145 574.485 376.983 564.707 383.987 568.286C390.991 571.87 393.605 578.746 407.949 574.458C422.297 570.171 413.152 519.351 413.152 519.351C413.152 519.351 396.443 494.795 395.929 494.667C395.414 494.538 363.378 491.18 363.378 491.18Z" fill="#FF5500"></path><path d="M400.874 552.464C400.874 552.464 425.645 547.606 437.039 548.013C448.428 548.424 430.135 580.007 430.135 580.007L411.53 580.449C411.53 580.449 400.123 566.866 400.874 565.286C401.625 563.707 400.841 553.345 400.841 553.345L400.874 552.464Z" fill="#FFC0BB"></path><path d="M422.965 527.257L429.5 548.407C429.5 548.407 423.811 560.95 406.389 555.539C406.389 555.539 408.376 551.159 405.712 542.142C402.982 532.921 422.965 527.257 422.965 527.257Z" fill="#FFC0BB"></path><path opacity="0.6" d="M422.965 527.257L426.031 537.137C424.205 544.358 418.276 549.274 407.094 550.8C407.098 548.654 406.787 545.783 405.708 542.137C402.982 532.921 422.965 527.257 422.965 527.257Z" fill="#FC8D84"></path><path d="M383.107 511.771C384.522 515.205 383.58 518.966 381.004 520.174C378.427 521.382 375.195 519.572 373.78 516.138C372.365 512.705 373.307 508.944 375.884 507.736C378.46 506.533 381.692 508.338 383.107 511.771Z" fill="#F99893"></path><path d="M382.385 527.368C380.713 522.948 379.809 518.227 379.327 514.099C379.224 513.214 379.074 512.338 378.908 511.462C378.236 507.931 378.153 504.17 378.838 500.281C381.041 487.769 390.879 478.11 402.758 476.831C418.762 475.106 432.354 488.229 432.769 504.914C434.446 503.856 436.35 503.569 438.051 504.325C441.317 505.772 442.59 510.471 440.898 514.825C439.201 519.178 435.18 521.537 431.914 520.09C431.462 519.891 431.051 519.621 430.674 519.302C429.67 533.54 419.035 544.81 405.945 544.951C396.119 545.062 386.447 538.708 382.385 527.368Z" fill="#FFC0BB"></path><path d="M399.472 505.577C399.986 507.148 400.256 508.794 400.343 510.467C400.385 511.307 400.368 512.152 400.26 513.015C400.136 513.873 399.949 514.763 399.439 515.621C398.845 516.435 398.534 516.705 398.443 517.355C398.335 517.917 398.58 518.528 398.962 519.068C399.787 520.165 401.235 520.767 402.746 521.094C401.244 521.408 399.455 521.209 398.123 519.913C397.472 519.289 396.97 518.293 397.045 517.209C397.119 516.086 397.592 515.586 398.206 514.732C398.53 514.214 398.725 513.484 398.883 512.75C399.053 512.011 399.103 511.219 399.194 510.431C399.318 508.856 399.376 507.237 399.472 505.577Z" fill="#F99893"></path><path d="M408.438 507.728C408.21 509.444 409.588 510.882 411.193 510.599C412.189 510.422 412.998 509.542 413.139 508.475C413.368 506.759 411.99 505.325 410.384 505.608C409.388 505.781 408.579 506.661 408.438 507.728Z" fill="#333333"></path><path d="M388.057 509.374C387.829 511.086 389.203 512.524 390.804 512.245C391.804 512.073 392.613 511.192 392.754 510.126C392.987 508.409 391.605 506.967 390.003 507.25C389.008 507.427 388.198 508.307 388.057 509.374Z" fill="#333333"></path><path opacity="0.3" d="M408.833 527.386C408.833 527.386 405.434 526.089 402.239 528.319C402.239 528.319 398.783 526.014 396.061 528.213C396.061 528.213 397.327 533.7 403.003 533.328C408.675 532.965 408.833 527.386 408.833 527.386Z" fill="#F99893"></path><path d="M411.803 525.421C411.16 525.974 410.492 526.488 409.787 526.934C409.094 527.395 408.372 527.81 407.629 528.156C406.144 528.85 404.575 529.341 402.97 529.483C401.368 529.638 399.75 529.425 398.202 528.921C396.659 528.395 395.202 527.572 393.829 526.594C394.443 527.187 395.099 527.726 395.804 528.209C396.505 528.691 397.269 529.067 398.044 529.408C398.833 529.722 399.654 529.952 400.492 530.08C401.331 530.195 402.181 530.217 403.023 530.151C404.708 529.983 406.351 529.448 407.837 528.62C409.318 527.784 410.691 526.731 411.803 525.421Z" fill="#F99893"></path><path d="M405.629 502.294C406.849 501.945 407.998 501.684 409.131 501.542C410.26 501.401 411.363 501.414 412.43 501.595C413.492 501.79 414.554 502.078 415.571 502.617C416.351 502.909 418.23 504.188 418.72 504.44C418.176 503.272 417.367 502.002 416.338 501.277C415.322 500.387 414.027 499.852 412.712 499.622C411.388 499.401 410.019 499.556 408.791 500.025C407.571 500.502 406.443 501.241 405.629 502.294Z" fill="#FF5500"></path><path d="M395.132 503.144C394.202 502.201 393.003 501.617 391.738 501.299C390.468 500.994 389.091 501.016 387.8 501.409C386.518 501.808 385.294 502.507 384.389 503.52C383.452 504.374 382.792 505.732 382.385 506.971C382.846 506.652 384.564 505.144 385.302 504.754C386.248 504.086 387.269 503.666 388.302 503.334C389.339 503.016 390.435 502.861 391.572 502.856C392.713 502.843 393.879 502.954 395.132 503.144Z" fill="#FF5500"></path><path d="M443.964 681.673C443.964 681.673 451.271 718.335 418.123 727.038C384.974 735.741 343.142 736.626 343.142 736.626L342.366 822.019L324.919 824.152C324.919 824.152 272.855 709.079 334.147 686.416L390.227 682.934L413.21 679.62C413.21 679.62 436.205 671.895 436.549 673.046C436.898 674.205 443.449 682.297 443.964 681.673Z" fill="#FFC0BB"></path><path d="M474.788 679.793C474.788 679.793 482.095 716.455 448.947 725.158C415.799 733.861 373.967 734.746 373.967 734.746L373.195 820.139L355.748 822.272C355.748 822.272 303.683 707.199 364.975 684.536L421.06 681.054L444.043 677.74C444.043 677.74 467.038 670.015 467.382 671.165C467.722 672.325 474.274 680.417 474.788 679.793Z" fill="#FFC0BB"></path><path d="M355.611 675.47C327.662 675.926 302.165 693.04 293.099 726.277C284.033 759.514 263.341 793.8 265.311 793.468C309.152 819.639 322.936 793.353 353.233 801.123C383.535 808.892 394.273 805.379 394.273 805.379C385.502 758.466 373.967 734.75 373.967 734.75C376.514 735.237 450.872 736.405 469.245 714.694C474.398 708.606 478.344 700.947 477.556 682.231C476.087 647.397 363.718 675.342 355.611 675.47Z" fill="#FEB546"></path><path d="M363.942 737.197C364.897 737.011 365.855 736.838 366.797 736.604C367.739 736.369 368.672 736.1 369.593 735.803C370.054 735.648 370.523 735.485 370.975 735.303C370.498 735.197 370.033 735.051 369.573 734.874C368.66 734.533 367.809 734.038 367.013 733.476C366.241 732.87 365.511 732.215 364.872 731.467C364.229 730.724 363.681 729.901 363.191 729.047L364.141 730.144C364.482 730.485 364.797 730.843 365.154 731.162C365.83 731.834 366.585 732.396 367.361 732.905C368.141 733.409 368.967 733.817 369.822 734.135C370.668 734.44 371.585 734.662 372.427 734.697L373.975 734.759L372.602 735.44C371.668 735.905 370.739 736.206 369.784 736.493C368.834 736.777 367.867 736.976 366.901 737.153C365.934 737.321 364.963 737.467 363.984 737.542C363.009 737.617 362.034 737.67 361.054 737.666C362.021 737.507 362.984 737.383 363.942 737.197Z" fill="#DAEEF7"></path><path d="M372.722 603.926C372.722 603.926 370.465 663.825 364.15 673.205L398.891 664.785V599.594L372.722 603.926Z" fill="#FFC0BB"></path><path d="M386.759 612.107C386.759 612.107 392.36 627.186 393.236 635.189C395.418 655.078 393.049 669.103 389.186 680.421C383.771 696.297 425.674 690.257 426.682 690.284C470.959 691.408 470.548 689.478 470.548 689.478L477.618 683.43C476.631 664.033 474.116 647.255 474.506 629.955L474.913 612.107L472.884 594.063L410.21 588.798L386.759 612.107Z" fill="#FEB546"></path><path d="M365.307 625.425C369.133 619.075 400.48 608.293 400.48 608.293C400.48 618.598 400.48 619.04 400.48 619.04L368.569 630.938L365.307 625.425Z" fill="#EDEDED"></path><path d="M365.307 625.425C369.133 619.075 400.48 608.293 400.48 608.293C400.48 618.598 400.48 619.04 400.48 619.04L368.569 630.938L365.307 625.425Z" fill="#EDEDED"></path><path d="M367.56 624.991L403.966 607.094V614.04L368.461 627.699L367.56 624.991Z" fill="white"></path><path d="M369.581 624.991L408.007 609.487V621.469L369.971 627.699L369.581 624.991Z" fill="#EDEDED"></path><path d="M365.307 623.77C365.307 623.77 357.897 605.297 354.864 601.461C354.864 613.615 359.469 628.898 359.469 628.898L365.307 623.77Z" fill="white"></path><path d="M362.071 624.584L353.088 600.382V611.912L359.258 627.699L362.071 624.584Z" fill="#EDEDED"></path><path d="M359.258 624.991L349.47 601.461V609.85L359.258 624.991Z" fill="white"></path><path d="M359.258 697.5L350.275 675.453V602.948L359.258 624.991V697.5Z" fill="#F5577A"></path><path d="M416.123 686.545L372.423 697.5V624.991L416.123 614.04V686.545Z" fill="#FF5B7E"></path><path d="M372.423 624.991C368.573 623.026 360.511 623.721 359.262 624.991C359.918 629.137 371.44 629.951 372.423 624.991Z" fill="#E0E0E0"></path><path d="M372.423 697.5C372.423 699.274 359.2 699.274 359.2 697.5V624.995C360.536 627.106 370.93 627.044 372.423 624.995V697.5Z" fill="#DE4B6C"></path><path d="M488.041 596.696L458.295 611.39C458.295 611.39 455.98 651.972 454.544 653.764C451.943 657.011 425.566 666.325 411.671 669.046C409.434 669.484 407.136 669.294 404.99 668.488C398.103 665.891 385.904 661.223 383.979 660.529C380.958 659.44 372.44 657.29 371.884 658.365C371.369 659.361 378.518 660.113 382.726 662.343C383.319 662.657 382.763 663.453 382.618 663.418C380.232 662.847 374.087 661.418 371.913 661.564C369.245 661.745 378.087 663.493 382.543 665.728C382.854 665.882 382.875 666.949 382.572 667.134C381.867 667.568 379.705 667.506 373.958 666.542C364.37 664.936 373.199 668.736 373.199 668.736C373.199 668.736 374.104 668.714 382.415 669.798C382.717 669.838 382.829 670.82 382.282 671.108C381.332 671.612 379.182 672.537 376.581 672.616C373.344 672.718 375.324 674.165 375.324 674.165C375.324 674.165 381.456 673.957 384.709 674.599C387.145 675.077 398.157 679.218 402.7 680.797L403.26 680.054C409.567 681.62 467.677 686.147 474.734 667.763C487.713 633.968 488.041 596.696 488.041 596.696Z" fill="#FFC0BB"></path><path d="M400.874 552.464C400.874 552.464 417.716 573.423 437.039 548.013C437.039 548.013 458.15 546.177 473.714 557.964C489.282 569.751 498.601 596.227 498.601 596.227C498.601 596.227 476.257 612.102 458.254 612.102L416.023 595.975L386.763 612.102C386.763 612.102 373.174 611.142 361.673 604.886C361.669 604.89 363.652 562.809 400.874 552.464Z" fill="#FEB546"></path><path d="M453.117 588.223C453.843 590.82 454.499 593.444 455.146 596.063C456.362 601.213 457.478 606.12 458.295 611.39C459.822 611.465 461.54 611.226 463.05 610.996C471.179 609.452 476.519 607.027 483.759 603.864C494.605 598.594 493.14 599.107 498.605 596.227C492.257 600.51 488.833 602.439 484.211 604.908C477.871 608.04 471.809 610.943 463.278 612.545C459.548 613.089 458.478 612.969 457.063 612.797C456.511 608.934 455.88 604.979 454.15 596.315L452.54 588.382L450.881 580.449C451.677 583.02 452.395 585.621 453.117 588.223Z" fill="#07085B"></path><path d="M386.182 593.094C385.692 595.802 385.352 599.373 385.468 602.709C385.522 604.266 386.601 608.62 387.846 613.031C387.614 613.124 387.385 613.217 387.149 613.31C385.709 608.868 384.473 604.426 384.315 602.806C383.937 599.466 384.195 596.094 384.722 592.816C385.315 589.511 386.091 586.431 387.265 583.241C388.381 580.153 389.701 577.148 391.356 574.352C390.252 577.432 389.248 580.52 388.356 583.639C387.477 586.763 386.701 589.909 386.182 593.094Z" fill="#07085B"></path><path d="M432.773 504.918C432.773 504.918 403.849 497.481 390.032 476.522C390.032 476.522 389.792 457.439 416.343 461.766C442.142 465.974 448.179 492.746 432.773 504.918Z" fill="#FF5500"></path></svg>